<?xml version="1.0" standalone="no"?>
<svg xmlns="http://www.w3.org/2000/svg"
     width="2880" height="1880" viewBox="0 0 2880 1880">
  <defs>
    <linearGradient gradientUnits="userSpaceOnUse" id="hypr-grad">
      <stop stop-color="#00a8f4" offset="0"/>
      <stop stop-color="#00e5d0" offset="1"/>
    </linearGradient>
    <linearGradient id="ascii-fill" href="#hypr-grad" y2="346.78" x2="202.09" y1="659.7" x1="202.09" />
    <linearGradient id="hypr-logo-fill" href="#hypr-grad" y2="346.78" x2="202.09" y1="659.7" x1="202.09" />
  </defs>
  <desc>My Wallpaper</desc>
  <rect fill="#081818" stroke="red" width="2880" height="1880"/>
  <path
      id="hypr-logo"
      d="M311.03,491.55c-9.09-20.56-22.42-39.71-35.29-58.22-2.38-3.41-4.62-6.64-6.84-9.87-3.15-4.6-7.42-10.49-12.36-17.31-11.29-15.59-28.92-39.62-40.84-59.36v49.42c12.28,17.62,24.2,33.49,30.57,42.78,13.94,20.33,30.09,42,39.67,63.66,28.78,65.13-11.7,128.85-82.05,129.61h-1.26c-.18,0-.35,0-.53,0-.18,0-.35,0-.53,0h-1.26c-70.35-.76-110.84-64.48-82.05-129.61,9.58-21.67,25.72-43.33,39.67-63.66,6.36-9.28,18.28-25.16,30.57-42.78v-49.42c-11.92,19.75-29.55,43.78-40.84,59.36-4.94,6.81-9.21,12.7-12.36,17.31-2.22,3.23-4.46,6.45-6.84,9.87-12.88,18.52-26.21,37.67-35.29,58.22-8.83,19.97-12.7,40.38-11.49,60.65,1.16,19.65,7.28,38.57,17.68,54.73,10.28,15.97,24.74,29.21,41.81,38.29,17.64,9.37,37.44,14.25,58.87,14.48.52,0,1.03,0,1.56,0,.18,0,.35,0,.53,0,.18,0,.35,0,.53,0,.52,0,1.03,0,1.56,0,21.43-.23,41.23-5.1,58.87-14.48,17.07-9.08,31.52-22.32,41.81-38.29,10.4-16.16,16.52-35.08,17.68-54.73,1.2-20.27-2.67-40.68-11.49-60.65Z"
      fill="url(#hypr-logo-fill)"
      transform="translate(1024, 420)" />
  <path
      id="arch-logo"
      d="m 105.8125,16.625 c -7.39687,18.135158 -11.858304,29.997682 -20.09375,47.59375 5.04936,5.35232 11.247211,11.585364 21.3125,18.625 C 96.210077,78.390904 88.828713,73.920352 83.3125,69.28125 72.7727,91.274163 56.259864,122.60209 22.75,182.8125 49.087628,167.60733 69.504089,158.23318 88.53125,154.65625 87.714216,151.1422 87.2497,147.34107 87.28125,143.375 l 0.03125,-0.84375 c 0.417917,-16.87382 9.195665,-29.84979 19.59375,-28.96875 10.39809,0.88104 18.48041,15.28242 18.0625,32.15625 -0.0786,3.17512 -0.43674,6.22955 -1.0625,9.0625 18.82058,3.68164 39.01873,13.03179 65,28.03125 -5.123,-9.4318 -9.69572,-17.93388 -14.0625,-26.03125 -6.87839,-5.33121 -14.05289,-12.2698 -28.6875,-19.78125 10.05899,2.61375 17.2611,5.62932 22.875,9 C 124.63297,63.338161 121.03766,52.354109 105.8125,16.625 z"
      transform="translate(1380 750) scale(1.75 1.75)"
      style="fill:#1793d1;fill-opacity:1;fill-rule:evenodd;stroke:none" />
  <g id="power-of-two" fill="url('#ascii-fill')" font-family="monospace" font-size="30">
  </g>
  <g id="ascii-table" fill="url('#ascii-fill')" font-family="monospace" font-size="40" text-anchor="middle">
    <g id="ascii-table-lines" />
    <g id="ascii-header" font-weight="bold" />
    <g id="ascii-content" />
  </g>
</svg>
